<svg id="图层_1" data-name="图层 1" xmlns="http://www.w3.org/2000/svg" viewBox="0 0 48 49"><defs><style>.cls-1{fill:#32bea6;stroke:#04a384;stroke-miterlimit:10;stroke-width:3px;}.cls-2{fill:#3e3e3f;}.cls-3{fill:#5b5c5f;}.cls-4{fill:#fff;}.cls-5{fill:#f0f1f1;}.cls-6{fill:#cfd3d4;}.cls-7{fill:#e6e6e6;}.cls-8{fill:#22a7f0;}.cls-9{fill:#cf000f;}.cls-10{fill:#e67e22;}.cls-11{fill:#26a65b;}</style></defs><g id="Multicolor"><circle class="cls-1" cx="24.12" cy="23.75" r="21"/><path class="cls-2" d="M33.34,15.1a1.54,1.54,0,0,0-1.54-1.54H16.43A1.53,1.53,0,0,0,14.9,15.1V25.86H33.34Z"/><path class="cls-3" d="M14.9,15.1V25.86h4.25l12.29-12.3h-15A1.53,1.53,0,0,0,14.9,15.1Z"/><path class="cls-4" d="M35.33,34.63a1.54,1.54,0,0,1-1.09.45H14a1.54,1.54,0,0,1-1.09-.45l-1.09-1.09H36.41Z"/><polygon class="cls-5" points="33.34 25.86 14.89 25.86 11.82 33.54 36.41 33.54 33.34 25.86"/><path class="cls-6" d="M26.6,31.2a.7.7,0,0,0-.56-.35H22.2a.69.69,0,0,0-.56.35l-.42.85c-.1.19,0,.34.21.34h5.38c.21,0,.3-.15.21-.34Z"/><path class="cls-6" d="M31.8,29.32a.38.38,0,0,1-.38.38H17.2a.38.38,0,0,1-.38-.38h0a.38.38,0,0,1,.38-.39H31.42a.38.38,0,0,1,.38.39Z"/><path class="cls-6" d="M31.12,27.78a.38.38,0,0,1-.38.38H17.88a.38.38,0,0,1-.38-.38h0a.39.39,0,0,1,.38-.39H30.74a.39.39,0,0,1,.38.39Z"/><polygon class="cls-4" points="19.15 25.86 14.89 25.86 12.06 32.94 19.15 25.86"/></g><g id="icon"><path id="bg" class="cls-4" d="M27.28,23.26H21a.41.41,0,0,1-.41-.4V17.24a.41.41,0,0,1,.41-.41h6.33a.41.41,0,0,1,.41.41v5.62A.4.4,0,0,1,27.28,23.26Z"/><g id="text"><rect class="cls-7" x="23.3" y="19.28" width="3.37" height="0.41"/><rect class="cls-7" x="23.3" y="20.1" width="3.37" height="0.41"/><rect class="cls-7" x="21.56" y="20.92" width="5.11" height="0.41"/><rect class="cls-7" x="21.56" y="21.73" width="5.11" height="0.41"/></g><rect id="img" class="cls-8" x="21.56" y="19.28" width="1.23" height="1.23"/><path id="header" class="cls-7" d="M27.28,16.83H21a.41.41,0,0,0-.41.41v.92h7.15v-.92A.41.41,0,0,0,27.28,16.83Z"/><circle id="red" class="cls-9" cx="21.26" cy="17.52" r="0.2"/><circle id="orange" class="cls-10" cx="21.87" cy="17.52" r="0.2"/><circle id="green" class="cls-11" cx="22.48" cy="17.52" r="0.2"/></g></svg>